<svg width="30" height="24" viewBox="0 0 30 24" fill="none" xmlns="http://www.w3.org/2000/svg">
<path d="M29.0625 3.41603C28.0075 3.87444 26.8912 4.17645 25.749 4.31251C26.9494 3.60961 27.8521 2.49292 28.2879 1.17188C27.153 1.83551 25.9134 2.30115 24.6223 2.54884C24.0786 1.97903 23.4247 1.52574 22.7004 1.2165C21.976 0.907267 21.1964 0.748554 20.4088 0.75001C17.2201 0.75001 14.6396 3.29298 14.6396 6.42774C14.6374 6.86378 14.6874 7.29851 14.7885 7.72267C12.502 7.61548 10.263 7.03219 8.21483 6.01012C6.16666 4.98805 4.35439 3.54971 2.89395 1.78712C2.38159 2.65086 2.11062 3.63636 2.10938 4.64063C2.10938 6.60938 3.13652 8.34962 4.6875 9.36915C3.76859 9.34734 2.86851 9.10413 2.06367 8.66017V8.73048C2.06367 11.4844 4.05586 13.7754 6.69258 14.2969C6.19675 14.4291 5.6858 14.496 5.17266 14.4961C4.80854 14.4967 4.44526 14.4614 4.08809 14.3906C4.82109 16.6465 6.95449 18.2871 9.48164 18.334C7.42815 19.9166 4.907 20.7719 2.31445 20.7656C1.85427 20.765 1.39451 20.7376 0.9375 20.6836C3.57491 22.3677 6.64069 23.2585 9.76992 23.25C20.3965 23.25 26.202 14.5957 26.202 7.08985C26.202 6.84376 26.1955 6.59767 26.1838 6.35743C27.3106 5.5559 28.2854 4.55984 29.0625 3.41603Z" fill="white"/>
</svg>
